/* XPM */
static char *tile_129[] = {
/* columns rows colors chars-per-pixel */
"16 16 4 1 ",
"  c #346524",
". c #30346D",
"X c #6DAA2C",
"o c #6DC2CA",
/* pixels */
"XXXXXXXXXXXXXXXX",
"XXXXXXXXXXXXXXXX",
"XXXXXXXXXXXXXXXX",
"XXXXXXXXXXXXXXXX",
"XXXXXXXXXXXXXXXX",
"XXXXXXXXXXXXXXXX",
"XXXXXXXXXXXXXXXX",
"XXXXXXXXXXXXXXXX",
"XXXXXXXXXXXXXXXX",
". XXX XXXXX .XXX",
"X.XXX .XX .. XXX",
".. X .. X..o. X.",
"o.. ......ooo...",
"oo...ooooooooooo",
"oooooooooooooooo",
"oooooooooooooooo"
};
