/* XPM */
static char *tile_2[] = {
/* columns rows colors chars-per-pixel */
"16 16 4 1 ",
"  c #30346D",
". c #854C30",
"X c #D27D2C",
"o c #6DC2CA",
/* pixels */
"oooooooooooooooo",
"oooooooooooooooo",
"         ooooooo",
".X.  .X.   ooooo",
"XXX.XXXXX.   ooo",
"XXXXXXXXXXXX ooo",
"XXXXXXXXXXX. ooo",
"XXXXXXXXXXX  ooo",
"XXXXXXXXXX. oooo",
"XXXXXXXXXX  oooo",
"XXXXXXXXXX  oooo",
"XXXXXXXXXX.  ooo",
"XXXXXXXXXXX. ooo",
"XXXXXXXXXXXX ooo",
"XXXXXXXXXXX. ooo",
"XXXXXXXXXX.  ooo"
};
