/* XPM */
static char *tile_117[] = {
/* columns rows colors chars-per-pixel */
"16 16 2 1 ",
"  c None",
". c #346524",
/* pixels */
"                ",
"        .       ",
"        ..      ",
"       ...      ",
"       ....     ",
"      .....     ",
"      .....     ",
"       ....     ",
"     .......    ",
"    ........    ",
"    ........    ",
"   ........     ",
"   .........    ",
"    .........   ",
"    .........   ",
"   ...........  "
};
