/* XPM */
static char *tile_86[] = {
/* columns rows colors chars-per-pixel */
"16 16 6 1 ",
"  c #346524",
". c #30346D",
"X c #854C30",
"o c #D27D2C",
"O c #6DAA2C",
"+ c #6DC2CA",
/* pixels */
"++++++++++++++++",
"++++++++++++++++",
"++++++++.+++++++",
"...+++.....++...",
".O .+..OoX....Xo",
"OOO .. OoooooXoo",
"OOO. OOOoooooooo",
"OOOOOOOOoooooooo",
"OOOOOOOOOO XXooo",
"OOOOOOOOOOXXOooo",
"OOOOOOOOOOXOXooo",
"OOOOOOOOOOOOXooo",
"OOOOOOOOOOO Xooo",
"OOOOOOOOOOOO Xoo",
"OOOOOOOOOOOOXooo",
"OOOOOOOOOO Xoooo"
};
