/* XPM */
static char *tile_102[] = {
/* columns rows colors chars-per-pixel */
"16 16 2 1 ",
"  c #346524",
". c #6DAA2C",
/* pixels */
"................",
"....... ........",
"....... ... ....",
"........ . .....",
"................",
".  .  ..........",
".. . ..... .....",
".......... . ...",
"................",
"................",
"........... ... ",
".... ......  .  ",
".... .  .... . .",
".... . .........",
"................",
"................"
};
