/* XPM */
static char *tile_4[] = {
/* columns rows colors chars-per-pixel */
"16 16 4 1 ",
"  c #30346D",
". c #854C30",
"X c #D27D2C",
"o c #6DC2CA",
/* pixels */
"XXXXXXXXXXXXXXXX",
"XXXXXXXXXXXXXXXX",
"XXXXXXXXXXXXXXXX",
"XXXXXXXXXXXXXXXX",
"XXXXXXXXXXXXXXXX",
"XXXXXXXXXXXXXXXX",
"XXXXXXXXXXXXXXXX",
"XXXXXXXXXXXXXXXX",
"XXXXXXXXXXXXXXXX",
"XXXXXXXXXXXXXXXX",
"XX.XXXXXXXXXXXXX",
"X.   XXXXXXXXXXX",
"   o.XXXXXXXXXXX",
"ooo  .XXXXXXXXXX",
"oooo XXXXXXXXXXX",
"oooo XXXXXXXXXXX"
};
