/* XPM */
static char *tile_22[] = {
/* columns rows colors chars-per-pixel */
"16 16 6 1 ",
"  c #346524",
". c #30346D",
"X c #854C30",
"o c #D27D2C",
"O c #6DAA2C",
"+ c #6DC2CA",
/* pixels */
"++++. OOOOOOOOOO",
"+++.OOOOOOOOOOOO",
"........OOOOOOOO",
"XoX..XoXOOOOOOOO",
"oooXooooOOOOOOOO",
"ooooooooOOOOOOOO",
"ooooooooOOOOOOOO",
"ooooooooOOOOOOOO",
"ooooooooOOOOOOOO",
"ooooooooOOO XOOO",
"ooooooooO XX OOO",
"ooooooooOXXoX OX",
"ooooooooXXoooXXX",
"oooooooooooooooo",
"oooooooooooooooo",
"oooooooooooooooo"
};
