/* XPM */
static char *tile_97[] = {
/* columns rows colors chars-per-pixel */
"16 16 4 1 ",
"  c #346524",
". c #30346D",
"X c #6DAA2C",
"o c #6DC2CA",
/* pixels */
"oooooooooooooooo",
"oooooooooooooooo",
"ooooooooooo...oo",
"...ooo...... ..o",
".X .o..X .. X ..",
"XXX .. XX. XXX.X",
"XXX. XXXXX XXX .",
"XXXXXXXXXXXXXXXX",
"XXXXXXXXXXXXXXXX",
"XXXXXXXXXXXXXXXX",
"XXXXXXXXXXXXXXXX",
"XXXXXXXXXXXXXXXX",
"XXXXXXXXXXXXXXXX",
"XXXXXXXXXXXXXXXX",
"XXXXXXXXXXXXXXXX",
"XXXXXXXXXXXXXXXX"
};
