/* XPM */
static char *tile_3[] = {
/* columns rows colors chars-per-pixel */
"16 16 4 1 ",
"  c #30346D",
". c #854C30",
"X c #D27D2C",
"o c #6DC2CA",
/* pixels */
"XXXXXXXXXXXXXXXX",
"XXXXXXXXXXXXXXXX",
"XXXXXXXXXXXXXXXX",
"XXXXXXXXXXXXXXXX",
"XXXXXXXXXXXXXXXX",
"XXXXXXXXXXXXXXXX",
"XXXXXXXXXXXXXXXX",
"XXXXXXXXXXXXXXXX",
"XXXXXXXXXXXXXXXX",
"XXXXXXXXXXXXXXXX",
"XXXXXXXXXX XXXXX",
"XXXXXXXXXX. .XXX",
"XXXXXXXXXXX. .X.",
"XXXXXXXXXXXX o  ",
"XXXXXXXXXXX. ooo",
"XXXXXXXXXX.  ooo"
};
