/* XPM */
static char *tile_132[] = {
/* columns rows colors chars-per-pixel */
"16 16 4 1 ",
"  c #346524",
". c #30346D",
"X c #6DAA2C",
"o c #6DC2CA",
/* pixels */
"oooo. XXXXXXXXXX",
"ooo.XXXXXXXXXXXX",
"ooo XXXXXXXXXXXX",
"...o XXXXXXXXXXX",
".X .oXXXXXXXXXXX",
"XXX ..XXXXXXXXXX",
"XXX. XXXXXXXXXXX",
"XXXXXXXXXXXXXXXX",
"XXXXXXXXXXXXXXXX",
"XXXXXXXXXXX .XXX",
"XXXXXXXXXX.. XXX",
"XXXXXXXXXXXX. X.",
"XXXXXXXXXXX ....",
"XXXXXXXXXXXX .oo",
"XXXXXXXXXXXX.ooo",
"XXXXXXXXXX .oooo"
};
