/* XPM */
static char *tile_95[] = {
/* columns rows colors chars-per-pixel */
"16 16 3 1 ",
"  c None",
". c #6DAA2C",
"X c #DAD45E",
/* pixels */
"                ",
"                ",
"                ",
"                ",
"                ",
"                ",
"      .XX.      ",
"     XXXXXX     ",
"    XXXXXXXX    ",
"   .XXXXXXXX.   ",
"   XXXXXXXXXX   ",
"   XXXXXXXXXX   ",
"    XXXXXXXX    ",
"     .XXXX.     ",
"                ",
"                "
};
