/* XPM */
static char *tile_118[] = {
/* columns rows colors chars-per-pixel */
"16 16 3 1 ",
"  c None",
". c #30346D",
"X c #D04648",
/* pixels */
"                ",
"                ",
"                ",
"                ",
"                ",
"     XXXXXX     ",
"    X......X    ",
"    X......X    ",
"     XXXXXX     ",
"    X......X    ",
"   .XXXXXXXX.   ",
"  XXXXXXXXXXXX  ",
"  XXXXXXXXXXXX  ",
"   .XXXXXXXX.   ",
"    XXXXXXXX    ",
"     .XXXX.     "
};
