/* XPM */
static char *tile_135[] = {
/* columns rows colors chars-per-pixel */
"16 16 2 1 ",
"  c None",
". c #140C1C",
/* pixels */
".. . . .        ",
"... . .         ",
".. . . .        ",
"... . .         ",
".. . . .        ",
"... . .         ",
".. . . .        ",
"... . .         ",
".. . . .        ",
"... . .         ",
".. . . .        ",
"... . .         ",
".. . . .        ",
"... . .         ",
".. . . .        ",
"... . .         "
};
