/* XPM */
static char *tile_51[] = {
/* columns rows colors chars-per-pixel */
"16 16 4 1 ",
"  c #346524",
". c #854C30",
"X c #D27D2C",
"o c #6DAA2C",
/* pixels */
"oooooooooooooooo",
"oooooooooooooooo",
"oooooooooooooooo",
"oooooooooooooooo",
"oooooooooooooooo",
"oooooooooooooooo",
"oooooooooooooooo",
"oooooooooooooooo",
"oooooooooooooooo",
"ooooooooooo .ooo",
"oooooooooo.. ooo",
"oooooooooooo. o.",
"ooooooooooo ....",
"oooooooooooo .XX",
"oooooooooooo.XXX",
"oooooooooo .XXXX"
};
