/* XPM */
static char *tile_77[] = {
/* columns rows colors chars-per-pixel */
"16 16 3 1 ",
"  c #4E4A4E",
". c #757161",
"X c #8595A1",
/* pixels */
"XXXX XXXXXXXXXX ",
"X..X  ........X ",
"X...X ........X ",
"X.............X ",
"X..........X..X ",
"X.......... XXX ",
"X...........  X ",
"X.............  ",
"X.............X ",
"X.............X ",
"X.............X ",
"X.............X ",
"X.............X ",
"X.............X ",
"XXXXXXXXXXXXXXX ",
"               ."
};
