/* XPM */
static char *tile_136[] = {
/* columns rows colors chars-per-pixel */
"16 16 2 1 ",
"  c None",
". c #140C1C",
/* pixels */
".. . . .        ",
"... . .         ",
".. . . .        ",
"... . .         ",
".. . . .        ",
"... . .         ",
".. . . .        ",
"... . .         ",
".. . . .        ",
"... . .         ",
".. . .          ",
"... .           ",
"..              ",
".               ",
"                ",
"                "
};
