/* XPM */
static char *tile_75[] = {
/* columns rows colors chars-per-pixel */
"16 16 5 1 ",
"  c None",
". c #140C1C",
"X c #854C30",
"o c #597DCE",
"O c #D2AA99",
/* pixels */
"                ",
"  O       o  O  ",
"  O O oooo O O  ",
"  OO oooooo OO  ",
"   O ooOOoo O   ",
"    Oo.OO.oO    ",
"    OO.OO.OO    ",
"     OOOOOO     ",
"    ooOOOOoo    ",
"   oooooooooo   ",
"    oooooooo    ",
"     oooooo     ",
"     ..  XX     ",
"     ..  XX     ",
"    ..    XX    ",
"                "
};
