/* XPM */
static char *tile_131[] = {
/* columns rows colors chars-per-pixel */
"16 16 4 1 ",
"  c #346524",
". c #30346D",
"X c #6DAA2C",
"o c #6DC2CA",
/* pixels */
"XXXXXXXXXXX .ooo",
"XXXXXXXXXX ..ooo",
"XXXXXXXXXX..X.oo",
"XXXXXXXXXX. X..o",
"XXXXXXXXX XXX ..",
"XXXXXXXXXXXXXX.X",
"XXXXXXXXXX XXX .",
"XXXXXXXXXXXXXXXX",
"XXXXXXXXXXXXXXXX",
". XXX XXXXXXXXXX",
"X.XXX XXXXXXXXXX",
".. X X XXXXXXXXX",
"o..  .XXXXXXXXXX",
"oo.X..XXXXXXXXXX",
"ooo.. XXXXXXXXXX",
"ooo. XXXXXXXXXXX"
};
