/* XPM */
static char *tile_98[] = {
/* columns rows colors chars-per-pixel */
"16 16 4 1 ",
"  c #346524",
". c #30346D",
"X c #6DAA2C",
"o c #6DC2CA",
/* pixels */
"oooooooooooooooo",
"oooooooooooooooo",
"ooooooooooo...oo",
"...ooo...... .oo",
".X .o..X .. .ooo",
"XXX .. XX. X.ooo",
"XXX. XXXXXX .ooo",
"XXXXXXXXXXX.oooo",
"XXXXXXXXXX ..ooo",
"XXXXXXXXXX..Xooo",
"XXXXXXXXXX.X.ooo",
"XXXXXXXXXXXX.ooo",
"XXXXXXXXXXX .ooo",
"XXXXXXXXXXXX .oo",
"XXXXXXXXXXXX.ooo",
"XXXXXXXXXX .oooo"
};
