/* XPM */
static char *tile_133[] = {
/* columns rows colors chars-per-pixel */
"16 16 4 1 ",
"  c None",
". c #346524",
"X c #854C30",
"o c #D27D2C",
/* pixels */
"  .  .........  ",
"    ........ .  ",
"  ........... . ",
" .............  ",
" .............. ",
" .............. ",
"  ............. ",
" . ......... ...",
". ........... ..",
" .............  ",
"  ..X......X..  ",
"   .XX....XX.   ",
"    oXXXXXXoX   ",
"   Xooooooooo   ",
"    oX XoX oX   ",
"                "
};
