/* XPM */
static char *tile_106[] = {
/* columns rows colors chars-per-pixel */
"16 16 2 1 ",
"  c #854C30",
". c #D27D2C",
/* pixels */
"................",
"............ ...",
"........... . ..",
"..  ............",
". .. ...........",
"................",
".........  .....",
"........ .. ....",
"................",
"................",
"................",
"..  ............",
". .. ...........",
"..........  ....",
"......... .. ...",
"................"
};
