/* XPM */
static char *tile_30[] = {
/* columns rows colors chars-per-pixel */
"16 16 4 1 ",
"  c None",
". c #140C1C",
"X c #597DCE",
"o c #D2AA99",
/* pixels */
"                ",
"                ",
"           X    ",
"        XXX  o  ",
"       XXXXX oo ",
"       XXooX oo ",
"      oXoooo  oo",
"      oooo.o  oo",
"     XXooo.o  oo",
"    XXXXooo   oo",
"     XXXXX   oo ",
"     .XXX.   oo ",
"    ... ... oo  ",
"     ..  ..o    ",
"    ..    ..    ",
"                "
};
