/* XPM */
static char *tile_61[] = {
/* columns rows colors chars-per-pixel */
"16 16 4 1 ",
"  c None",
". c #140C1C",
"X c #597DCE",
"o c #D2AA99",
/* pixels */
"                ",
"                ",
"     X          ",
"      XXX       ",
"     XXXXX      ",
"     XooXX      ",
"     ooooXo     ",
"     o.oooo     ",
"     o.oooX     ",
"     XoooXXX    ",
"     oXXXXX..   ",
"    .ooXXX....  ",
"    ooo.  X. .  ",
"     o.         ",
"                ",
"                "
};
