/* XPM */
static char *tile_6[] = {
/* columns rows colors chars-per-pixel */
"16 16 6 1 ",
"  c #346524",
". c #30346D",
"X c #854C30",
"o c #D27D2C",
"O c #6DAA2C",
"+ c #6DC2CA",
/* pixels */
"oooooooooooooooo",
"oooooooooooooooo",
"oooooooooooXXXoo",
"ooooooooXXXX XXo",
"oooooooo XX O XX",
"ooooooooOX OOOXO",
"ooooooooOO OOO X",
"ooooooooOOOOOOOO",
"oooo.OOOOOOOOOOO",
"ooo. OOOOOOOOOOO",
"ooX.OOOOOOOOOOOO",
"oX..OO OOOOOOOOO",
"...O .OOOOOOOOOO",
"++.O..OOOOOOOOOO",
"+++.. OOOOOOOOOO",
"+++. OOOOOOOOOOO"
};
