/* XPM */
static char *tile_96[] = {
/* columns rows colors chars-per-pixel */
"16 16 4 1 ",
"  c #346524",
". c #30346D",
"X c #6DAA2C",
"o c #6DC2CA",
/* pixels */
"oooooooooooooooo",
"oooooooooooooooo",
"oo.oooooooo...oo",
"ooo.oo...... ..o",
"ooo.X..X .. X ..",
"ooo.X. XX. XXX.X",
"oooX..XXXX XXX .",
"ooo.. XXXXXXXXXX",
"oooo.XXXXXXXXXXX",
"ooo. XXXXXXXXXXX",
"ooo.XXXXXXXXXXXX",
"ooo.XX XXXXXXXXX",
"oo.X .XXXXXXXXXX",
"oo.X..XXXXXXXXXX",
"ooo.. XXXXXXXXXX",
"ooo. XXXXXXXXXXX"
};
