/* XPM */
static char *tile_29[] = {
/* columns rows colors chars-per-pixel */
"16 16 4 1 ",
"  c None",
". c #140C1C",
"X c #597DCE",
"o c #D2AA99",
/* pixels */
"                ",
"                ",
"          X     ",
"       XXX      ",
"      XXXXX     ",
"      XXooX     ",
"     oXoooo     ",
"     oooo.o     ",
"     Xooo.o     ",
"    XXXoooX     ",
"   ..XXXXXo     ",
"  ....XXXoo.    ",
"  . .X  .ooo    ",
"         .o     ",
"                ",
"                "
};
