/* XPM */
static char *tile_10[] = {
/* columns rows colors chars-per-pixel */
"16 16 6 1 ",
"  c #346524",
". c #30346D",
"X c #854C30",
"o c #D27D2C",
"O c #6DAA2C",
"+ c #6DC2CA",
/* pixels */
"+++..Xoooooooooo",
"+++.Xooooooooooo",
"+++.oooooooXXXoo",
"+++.XoooXXXX XXo",
"+++..Xoo XX O XX",
"++++..ooOX OOOXO",
"++++..ooOO OOO X",
"++++.XooOOOOOOOO",
"++++.OOOOOOOOOOO",
"+++. OOOOOOOOOOO",
"+++.OOOOOOOOOOOO",
"+++.OO OOOOOOOOO",
"++.O .OOOOOOOOOO",
"++.O..OOOOOOOOOO",
"+++.. OOOOOOOOOO",
"+++. OOOOOOOOOOO"
};
