/* XPM */
static char *tile_79[] = {
/* columns rows colors chars-per-pixel */
"16 16 4 1 ",
"  c None",
". c #854C30",
"X c #D27D2C",
"o c #DAD45E",
/* pixels */
"                ",
"                ",
"                ",
"                ",
"     .XXXX.     ",
"    XXXXXXXX    ",
"   .XXXXXXXX.   ",
"   XXXXXXXXXX   ",
"   .XXXXXXXX.   ",
"   X.XXooXX.X   ",
"   XX.o..o.XX   ",
"   XXXooooXXX   ",
"   XXXXXXXXXX   ",
"   .XXXXXXXX.   ",
"                ",
"                "
};
