/* XPM */
static char *tile_122[] = {
/* columns rows colors chars-per-pixel */
"16 16 3 1 ",
"  c None",
". c #854C30",
"X c #D27D2C",
/* pixels */
"                ",
"                ",
"                ",
"                ",
"                ",
"                ",
"                ",
"                ",
"XXXXXXX.        ",
"XXXXXXXX        ",
"XXXXXXXX        ",
"XXXXXXXX        ",
"........        ",
"XXXXXXXX        ",
"      ..        ",
"      XX        "
};
