/* XPM */
static char *tile_21[] = {
/* columns rows colors chars-per-pixel */
"16 16 6 1 ",
"  c #346524",
". c #30346D",
"X c #854C30",
"o c #D27D2C",
"O c #6DAA2C",
"+ c #6DC2CA",
/* pixels */
"OOOOOOOOOOO .+++",
"OOOOOOOOOO ..+++",
"OOOOOOOO.O..O.++",
"OOOOOOOO... O...",
"OOOOOOOOoX....Xo",
"OOOOOOOOoooooXoo",
"OOOOOOOOoooooooo",
"OOOOOOOOoooooooo",
"OOOOOOOOoooooooo",
"X OOO OOoooooooo",
"OXOOO XOoooooooo",
"XX O XX oooooooo",
"oXX XXXXoooooooo",
"ooXXXooooooooooo",
"oooooooooooooooo",
"oooooooooooooooo"
};
