/* XPM */
static char *tile_62[] = {
/* columns rows colors chars-per-pixel */
"16 16 4 1 ",
"  c None",
". c #140C1C",
"X c #597DCE",
"o c #D2AA99",
/* pixels */
"                ",
"                ",
"    X           ",
"  o  XXX        ",
" oo XXXXX       ",
" oo XooXX       ",
"oo  ooooXo      ",
"oo  o.oooo      ",
"oo  o.oooXX     ",
"oo   oooXXXX    ",
" oo   XXXXX     ",
" oo   .XXX.     ",
"  oo ... ...    ",
"    o..  ..     ",
"    ..    ..    ",
"                "
};
