/* XPM */
static char *tile_46[] = {
/* columns rows colors chars-per-pixel */
"16 16 4 1 ",
"  c None",
". c #140C1C",
"X c #597DCE",
"o c #D2AA99",
/* pixels */
"                ",
"      oooo      ",
"    oooooooo    ",
"   ooo    ooo   ",
"   oX XXXX      ",
"  o  XXXXXX     ",
"     XXXXXX     ",
"    oXXXXXXo    ",
"    oooooooo    ",
"    XXXXXXXX    ",
"   XXXXXXXXXX   ",
"    XXXXXXXX    ",
"     XXXXXX     ",
"     ..  ..     ",
"     ..   ..    ",
"    ..          "
};
