/* XPM */
static char *tile_119[] = {
/* columns rows colors chars-per-pixel */
"16 16 2 1 ",
"  c #442434",
". c #854C30",
/* pixels */
"...... ....... .",
"....... ....... ",
" ....... .......",
". ....... ......",
" . ..... . .....",
"... ... ... ... ",
".... . ..... . .",
"..... ....... ..",
"...... ....... .",
"....... ....... ",
" ....... .......",
". ....... ......",
" . ..... . .....",
"... ... ... ... ",
".... . ..... . .",
"..... ....... .."
};
