/* XPM */
static char *tile_43[] = {
/* columns rows colors chars-per-pixel */
"16 16 4 1 ",
"  c None",
". c #140C1C",
"X c #597DCE",
"o c #D2AA99",
/* pixels */
"                ",
"                ",
"          X     ",
"    X XXXX      ",
"     XXXXXX     ",
"     XXXXXX     ",
"    oXXXXXXo    ",
"    oooooooo    ",
"     XXXXXX     ",
"    XXXXXXXX    ",
"   XXXXXXXXXX   ",
"    XXXXXXXXo   ",
"     XXXXXXoo   ",
"     ..   o o   ",
"     ..     o   ",
"    ..          "
};
