/* XPM */
static char *tile_1[] = {
/* columns rows colors chars-per-pixel */
"16 16 4 1 ",
"  c #30346D",
". c #854C30",
"X c #D27D2C",
"o c #6DC2CA",
/* pixels */
"oooooooooooooooo",
"oooooooooooooooo",
"         ooooooo",
".X.  .X.   oo   ",
"XXX.XXXXX.    .X",
"XXXXXXXXXXXXX.XX",
"XXXXXXXXXXXXXXXX",
"XXXXXXXXXXXXXXXX",
"XXXXXXXXXXXXXXXX",
"XXXXXXXXXXXXXXXX",
"XXXXXXXXXXXXXXXX",
"XXXXXXXXXXXXXXXX",
"XXXXXXXXXXXXXXXX",
"XXXXXXXXXXXXXXXX",
"XXXXXXXXXXXXXXXX",
"XXXXXXXXXXXXXXXX"
};
