/* XPM */
static char *tile_24[] = {
/* columns rows colors chars-per-pixel */
"16 16 6 1 ",
"  c #346524",
". c #30346D",
"X c #854C30",
"o c #D27D2C",
"O c #6DAA2C",
"+ c #6DC2CA",
/* pixels */
"ooooX OOOOOOOOOO",
"oooXOOOOOOOOOOOO",
"ooo OOOOOOOOOOOO",
"oooo OOOOOOOOOOO",
"oooooOOOOOOOOOOO",
"ooooooOOOOOOOOOO",
"oooooooOOOOOOOOO",
"ooooooooOOOOOOOO",
"oooooooooOOOOOOO",
"ooooooooooO XOOO",
"ooXooooooooX OOO",
"oX...oooooooX OX",
"...+XooooooooXXX",
"+++..Xoooooooooo",
"++++.ooooooooooo",
"++++.ooooooooooo"
};
