/* XPM */
static char *tile_54[] = {
/* columns rows colors chars-per-pixel */
"16 16 6 1 ",
"  c #346524",
". c #30346D",
"X c #854C30",
"o c #D27D2C",
"O c #6DAA2C",
"+ c #6DC2CA",
/* pixels */
"OOOOOOOOOOO Xooo",
"OOOOOOOOOO XXooo",
"OOOOOOOOOOXXOXoo",
"OOOOOOOOOOX OXoo",
"OOOOOOOOO OOXooo",
"OOOOOOOOOOOOXooo",
"OOOOOOOOOOO Xooo",
"OOOOOOOOOOOXoooo",
"OOO..ooooooooooo",
". O.Xooooooooooo",
"O.O.oooooooooooo",
".. .oooooooooooo",
"+...Xooooooooooo",
"++...Xoooooooooo",
"++++.ooooooooooo",
"++++.ooooooooooo"
};
