/* XPM */
static char *tile_87[] = {
/* columns rows colors chars-per-pixel */
"16 16 6 1 ",
"  c #346524",
". c #30346D",
"X c #854C30",
"o c #D27D2C",
"O c #6DAA2C",
"+ c #6DC2CA",
/* pixels */
"OOOOOOOOOOO .+++",
"OOOOOOOOOO ..+++",
"OOOOOOOOOO..O.++",
"OOOOOOOOOO. O..+",
"OOOOOOOOO OOO ..",
"OOOOOOOOOOOOOO.O",
"OOOOOOOOOO OOO .",
"OOOOOOOOOOOOOOOO",
"OOOOOOOOOOOOOOOO",
"X OOO OOOOOOOOOO",
"OXOOO OOOOOOOOOO",
"XX O O OOOOOOOOO",
"oXX  XOOOOOOOOOO",
"ooXOXXOOOOOOOOOO",
"oooXX OOOOOOOOOO",
"oooX OOOOOOOOOOO"
};
