/* XPM */
static char *tile_85[] = {
/* columns rows colors chars-per-pixel */
"16 16 6 1 ",
"  c #346524",
". c #30346D",
"X c #854C30",
"o c #D27D2C",
"O c #6DAA2C",
"+ c #6DC2CA",
/* pixels */
"++++++++++++++++",
"++++++++++++++++",
"........+++...++",
"XoX..XoX.... ..+",
"oooXoooo .. O ..",
"ooooooooO. OOO.O",
"ooooooooOO OOO .",
"ooooooooOOOOOOOO",
"ooooXOOOOOOOOOOO",
"oooX OOOOOOOOOOO",
"oooXOOOOOOOOOOOO",
"oooXOO OOOOOOOOO",
"ooXO XOOOOOOOOOO",
"ooXOXXOOOOOOOOOO",
"oooXX OOOOOOOOOO",
"oooX OOOOOOOOOOO"
};
