/* XPM */
static char *tile_82[] = {
/* columns rows colors chars-per-pixel */
"16 16 4 1 ",
"  c #346524",
". c #854C30",
"X c #D27D2C",
"o c #6DAA2C",
/* pixels */
"ooooooooooo .XXX",
"oooooooooo ..XXX",
"oooooooooo..o.XX",
"oooooooooo. o.XX",
"ooooooooo oo.XXX",
"oooooooooooo.XXX",
"ooooooooooo .XXX",
"ooooooooooo.XXXX",
"oooooooooo ..XXX",
". ooo oooo..oXXX",
"o.ooo .oo .o.XXX",
".. o .. o..X.XXX",
"X.. ......XXXXXX",
"XX...XXXXXXXXXXX",
"XXXXXXXXXXXXXXXX",
"XXXXXXXXXXXXXXXX"
};
